<svg width="45" height="45" viewBox="0 0 45 45" fill="none" xmlns="http://www.w3.org/2000/svg">
<path d="M22.5 3.75C18.7916 3.75 15.1665 4.84967 12.0831 6.90994C8.99964 8.97022 6.59641 11.8986 5.17727 15.3247C3.75812 18.7508 3.38681 22.5208 4.11028 26.1579C4.83376 29.7951 6.61952 33.136 9.24176 35.7583C11.864 38.3805 15.2049 40.1663 18.8421 40.8897C22.4792 41.6132 26.2492 41.2419 29.6753 39.8227C33.1014 38.4036 36.0298 36.0004 38.0901 32.9169C40.1503 29.8335 41.25 26.2084 41.25 22.5C41.25 20.0377 40.765 17.5995 39.8228 15.3247C38.8805 13.0498 37.4994 10.9828 35.7583 9.24175C34.0172 7.50065 31.9502 6.11953 29.6753 5.17726C27.4005 4.23498 24.9623 3.75 22.5 3.75V3.75ZM22.5 28.125C21.3875 28.125 20.3 27.7951 19.3749 27.177C18.4499 26.5589 17.7289 25.6804 17.3032 24.6526C16.8774 23.6248 16.766 22.4938 16.9831 21.4026C17.2001 20.3115 17.7359 19.3092 18.5225 18.5225C19.3092 17.7359 20.3115 17.2001 21.4026 16.9831C22.4938 16.766 23.6248 16.8774 24.6526 17.3032C25.6804 17.7289 26.5589 18.4499 27.177 19.3749C27.7951 20.2999 28.125 21.3875 28.125 22.5C28.125 23.9918 27.5324 25.4226 26.4775 26.4775C25.4226 27.5324 23.9919 28.125 22.5 28.125ZM27.6563 14.6812C26.6598 14.0199 25.5461 13.5553 24.375 13.3125V7.6875C27.042 8.02133 29.5689 9.07096 31.6875 10.725L27.6563 14.6812ZM20.625 13.3125C19.454 13.5553 18.3402 14.0199 17.3438 14.6812L13.3125 10.6687C15.4311 9.01471 17.958 7.96508 20.625 7.63125V13.3125ZM14.6813 17.3437C14.0199 18.3402 13.5553 19.454 13.3125 20.625H7.68751C8.00488 17.9636 9.03487 15.4372 10.6688 13.3125L14.6813 17.3437ZM13.3125 24.375C13.5553 25.546 14.0199 26.6598 14.6813 27.6562L10.6688 31.6875C9.01472 29.5689 7.96509 27.042 7.63126 24.375H13.3125ZM17.3438 30.3187C18.3402 30.9801 19.454 31.4447 20.625 31.6875V37.3125C17.958 36.9787 15.4311 35.929 13.3125 34.275L17.3438 30.3187ZM24.375 31.6875C25.5461 31.4447 26.6598 30.9801 27.6563 30.3187L31.6875 34.3312C29.5689 35.9853 27.042 37.0349 24.375 37.3687V31.6875ZM30.3188 27.6562C30.9801 26.6598 31.4447 25.546 31.6875 24.375H37.3125C36.9787 27.042 35.9291 29.5689 34.275 31.6875L30.3188 27.6562ZM31.6875 20.625C31.4447 19.454 30.9801 18.3402 30.3188 17.3437L34.3313 13.3125C35.9853 15.4311 37.0349 17.958 37.3688 20.625H31.6875Z" fill="black"/>
</svg>
