<svg width="45" height="45" viewBox="0 0 45 45" fill="none" xmlns="http://www.w3.org/2000/svg">
<path d="M22.7419 6.20719C23.7967 5.15266 25.2272 4.56026 26.7187 4.56026C28.2103 4.56026 29.6408 5.15266 30.6956 6.20719L41.6053 17.1169C42.6598 18.1717 43.2522 19.6022 43.2522 21.0938C43.2522 22.5853 42.6598 24.0158 41.6053 25.0706L26.1365 40.5394C25.0819 41.5943 23.6514 42.1872 22.1597 42.1875H14.4C12.9083 42.1872 11.4778 41.5943 10.4231 40.5394L3.39186 33.5081C2.33733 32.4533 1.74493 31.0228 1.74493 29.5312C1.74493 28.0397 2.33733 26.6092 3.39186 25.5544L22.739 6.20719H22.7419ZM28.7072 8.19563C28.1797 7.66836 27.4645 7.37216 26.7187 7.37216C25.973 7.37216 25.2577 7.66836 24.7303 8.19563L11.7 21.2259L26.5865 36.1125L39.6169 23.0822C40.1441 22.5548 40.4403 21.8395 40.4403 21.0938C40.4403 20.348 40.1441 19.6327 39.6169 19.1053L28.7072 8.19563V8.19563ZM24.5981 38.1009L9.71155 23.2144L5.38311 27.5428C4.85585 28.0702 4.55965 28.7855 4.55965 29.5312C4.55965 30.277 4.85585 30.9923 5.38311 31.5197L12.4144 38.5509C12.9417 39.0784 13.6569 39.3748 14.4028 39.375H22.1625C22.9083 39.3748 23.6236 39.0784 24.1509 38.5509L24.6009 38.1009H24.5981Z" fill="black"/>
</svg>
