<svg width="41" height="41" viewBox="0 0 41 41" fill="none" xmlns="http://www.w3.org/2000/svg">
<path d="M27.8513 7.3513C28.2295 6.95971 28.682 6.64736 29.1822 6.43248C29.6824 6.21761 30.2204 6.1045 30.7648 6.09977C31.3092 6.09504 31.8491 6.19878 32.3529 6.40493C32.8568 6.61108 33.3146 6.91552 33.6995 7.30048C34.0845 7.68544 34.3889 8.14321 34.5951 8.64709C34.8012 9.15096 34.905 9.69085 34.9003 10.2352C34.8955 10.7796 34.7824 11.3176 34.5675 11.8179C34.3527 12.3181 34.0403 12.7705 33.6487 13.1487L32.0231 14.7743L26.2257 8.97695L27.8513 7.3513V7.3513ZM23.327 11.8757L6.15002 29.0526V34.85H11.9474L29.1264 17.6731L23.3249 11.8757H23.327Z" fill="black"/>
</svg>
