<svg width="45" height="45" viewBox="0 0 45 45" fill="none" xmlns="http://www.w3.org/2000/svg">
<path d="M39.375 11.25C39.375 8.14875 36.8513 5.625 33.75 5.625C32.5906 5.62828 31.4607 5.99057 30.5156 6.66206C29.5705 7.33355 28.8565 8.28129 28.4719 9.375H16.5281C16.1435 8.28129 15.4295 7.33355 14.4844 6.66206C13.5393 5.99057 12.4094 5.62828 11.25 5.625C8.14875 5.625 5.625 8.14875 5.625 11.25C5.625 13.6913 7.19812 15.7519 9.375 16.5281V28.47C8.28159 28.8557 7.33426 29.5702 6.66289 30.5155C5.99152 31.4607 5.62899 32.5906 5.625 33.75C5.625 36.8513 8.14875 39.375 11.25 39.375C12.4094 39.3717 13.5393 39.0094 14.4844 38.3379C15.4295 37.6664 16.1435 36.7187 16.5281 35.625H28.47C28.8549 36.7186 29.5689 37.6661 30.514 38.3376C31.459 39.0091 32.5888 39.3714 33.7481 39.375C36.8494 39.375 39.3731 36.8513 39.3731 33.75C39.3691 32.5906 39.0066 31.4607 38.3352 30.5155C37.6639 29.5702 36.7165 28.8557 35.6231 28.47V16.53C36.717 16.1448 37.6649 15.4306 38.3367 14.4852C39.0084 13.5398 39.3711 12.4097 39.375 11.25V11.25ZM33.75 9.375C34.1214 9.37463 34.4845 9.48444 34.7934 9.69053C35.1024 9.89662 35.3432 10.1897 35.4855 10.5328C35.6278 10.8758 35.6651 11.2533 35.5928 11.6176C35.5204 11.9818 35.3416 12.3164 35.079 12.579C34.8164 12.8416 34.4818 13.0204 34.1176 13.0928C33.7533 13.1651 33.3758 13.1278 33.0328 12.9855C32.6897 12.8432 32.3966 12.6024 32.1905 12.2934C31.9844 11.9845 31.8746 11.6214 31.875 11.25C31.875 10.2169 32.715 9.375 33.75 9.375ZM28.4719 31.875H16.5281C16.2494 31.0903 15.7993 30.3776 15.2106 29.7886C14.622 29.1996 13.9095 28.7492 13.125 28.47V16.53C13.9095 16.2508 14.622 15.8004 15.2106 15.2114C15.7993 14.6224 16.2494 13.9097 16.5281 13.125H28.47C28.7492 13.9095 29.1996 14.622 29.7886 15.2106C30.3776 15.7993 31.0903 16.2494 31.875 16.5281V28.47C31.0905 28.7492 30.378 29.1996 29.7894 29.7886C29.2007 30.3776 28.7506 31.0903 28.4719 31.875V31.875ZM11.25 9.375C11.6214 9.37463 11.9845 9.48444 12.2934 9.69053C12.6024 9.89662 12.8432 10.1897 12.9855 10.5328C13.1278 10.8758 13.1651 11.2533 13.0928 11.6176C13.0204 11.9818 12.8416 12.3164 12.579 12.579C12.3164 12.8416 11.9818 13.0204 11.6176 13.0928C11.2533 13.1651 10.8758 13.1278 10.5328 12.9855C10.1897 12.8432 9.89662 12.6024 9.69053 12.2934C9.48444 11.9845 9.37463 11.6214 9.375 11.25C9.375 10.2169 10.215 9.375 11.25 9.375ZM11.25 35.625C10.7672 35.6034 10.3114 35.3964 9.97739 35.0472C9.6434 34.6979 9.457 34.2333 9.457 33.75C9.457 33.2667 9.6434 32.8021 9.97739 32.4528C10.3114 32.1036 10.7672 31.8966 11.25 31.875C11.7328 31.8966 12.1886 32.1036 12.5226 32.4528C12.8566 32.8021 13.043 33.2667 13.043 33.75C13.043 34.2333 12.8566 34.6979 12.5226 35.0472C12.1886 35.3964 11.7328 35.6034 11.25 35.625V35.625ZM33.75 35.625C33.2672 35.6034 32.8114 35.3964 32.4774 35.0472C32.1434 34.6979 31.957 34.2333 31.957 33.75C31.957 33.2667 32.1434 32.8021 32.4774 32.4528C32.8114 32.1036 33.2672 31.8966 33.75 31.875C34.2328 31.8966 34.6886 32.1036 35.0226 32.4528C35.3566 32.8021 35.543 33.2667 35.543 33.75C35.543 34.2333 35.3566 34.6979 35.0226 35.0472C34.6886 35.3964 34.2328 35.6034 33.75 35.625V35.625Z" fill="black"/>
</svg>
